<svg width="875" height="256" viewBox="0 0 875 256" fill="none" xmlns="http://www.w3.org/2000/svg">
<path d="M0 244.919V4.8718C0 2.21445 2.31291 0 5.0884 0H93.4415C106.856 0 119.346 2.21445 130.911 6.20047C142.475 10.1865 152.189 16.387 160.053 23.9161C168.38 31.4453 174.393 40.3031 179.019 50.9325C183.645 61.5618 185.958 73.077 185.958 85.4779C185.958 98.3218 183.645 109.837 179.019 120.466C174.393 131.096 167.917 139.954 159.591 147.483C151.264 155.012 141.087 160.769 129.523 164.755C117.958 168.741 105.006 170.956 91.1286 170.956H69.8498C67.0743 170.956 64.7614 173.17 64.7614 175.828V244.476C64.7614 247.133 62.4485 249.348 59.673 249.348H5.0884C2.31291 249.79 0 247.576 0 244.919ZM65.224 56.2471V115.595C65.224 118.252 67.5369 120.466 70.3124 120.466H78.6389C92.5163 120.466 103.156 117.366 110.557 111.609C117.958 105.408 121.659 96.9931 121.659 85.4779C121.659 62.4476 107.782 50.9325 79.5641 50.9325H70.775C67.5369 51.3753 65.224 53.5898 65.224 56.2471Z" fill="#F3F3F3"/>
<path d="M203.999 70.8634H253.495C256.271 70.8634 258.584 73.0779 258.584 75.7352V179.815C258.584 197.973 266.448 207.274 282.638 207.274C290.965 207.274 297.441 204.616 302.067 199.302C306.692 193.987 309.005 186.901 309.005 178.043V76.1781C309.005 73.5208 311.318 71.3063 314.094 71.3063H363.59C366.365 71.3063 368.678 73.5208 368.678 76.1781V244.92C368.678 247.577 366.365 249.791 363.59 249.791H315.019C312.243 249.791 309.93 247.577 309.93 244.92V235.619H308.543C304.379 241.819 297.903 246.691 288.652 250.234C279.863 253.777 270.148 255.549 259.509 255.549C241.006 255.549 226.203 250.234 215.101 239.605C203.999 228.975 198.448 214.803 198.448 197.087V75.7352C198.448 73.0779 200.761 70.8634 203.999 70.8634Z" fill="#F3F3F3"/>
<path fill-rule="evenodd" clip-rule="evenodd" d="M711.866 248.764H761.363C764.138 248.764 766.451 246.55 766.914 243.45V141.585C766.914 132.727 769.226 125.641 773.852 120.326C778.478 115.011 784.492 112.354 792.356 112.354C807.158 112.354 814.559 121.212 814.559 138.041V243.007C814.559 245.664 816.872 247.878 819.648 247.878H869.607C872.382 247.878 874.695 245.664 874.695 243.007V121.655C874.695 113.24 872.845 105.268 870.069 98.1813C866.831 91.0951 863.13 84.8946 857.579 80.0228C852.029 75.151 845.552 71.165 838.151 68.5076C830.75 65.8503 822.423 64.5216 813.634 64.5216C809.008 64.5216 804.383 64.9645 798.832 65.8503C793.743 66.7361 788.192 68.0647 783.104 70.2792L783.104 70.2794C778.015 72.4938 772.927 74.7082 768.764 77.8083C764.601 80.4657 761.363 84.0088 759.05 88.4377H757.199C746.56 72.4936 729.444 64.5216 707.24 64.5216C696.601 64.5216 687.349 66.2932 679.023 69.8363C670.697 73.3794 665.08 76.4079 659.759 82.3511L657.744 84.4517L651.335 92.0165C648.921 87.8855 646.109 84.1887 642.527 81.0451C636.977 76.1733 630.5 72.1873 623.099 69.53C615.698 66.8726 607.371 65.5439 598.582 65.5439C593.956 65.5439 589.331 65.9868 583.78 66.8726C578.691 67.7584 573.14 69.0871 568.052 71.3015L568.052 71.3016C562.963 73.516 557.875 75.7305 553.712 78.8307C549.549 81.488 546.311 85.0311 543.998 89.4601H542.147C531.508 73.516 514.392 65.5439 492.188 65.5439C481.549 65.5439 472.297 67.3155 463.971 70.8586C455.645 74.4018 449.168 79.2736 445.005 85.474H442.692V75.7304C442.692 73.0731 440.379 70.8586 437.604 70.8586H389.495C386.72 70.8586 384.407 73.0731 384.407 75.7304V244.915C384.407 247.572 386.72 249.787 389.495 249.787H439.454C442.23 249.787 444.543 247.572 444.543 244.915V143.05C444.543 134.192 446.393 127.106 451.019 121.791C455.645 116.476 461.658 113.819 469.522 113.819C484.325 113.819 491.726 122.234 491.726 139.507V244.915C491.726 247.572 494.039 249.787 496.814 249.787H546.311C549.086 249.787 551.399 247.572 551.862 244.472V142.607C551.862 133.749 554.174 126.663 558.8 121.348C563.426 116.034 569.44 113.376 577.303 113.376C591.414 113.376 598.799 121.425 599.459 136.756V243.892C599.459 244.452 599.561 244.992 599.749 245.495C600.411 247.454 602.352 248.901 604.596 248.901H654.555C657.33 248.901 659.643 246.686 659.643 244.029V139.608C659.962 131.87 661.874 125.59 666.071 120.769C670.697 115.454 676.71 112.797 684.574 112.797C699.377 112.797 706.778 121.212 706.778 138.484V243.892C706.778 246.55 709.091 248.764 711.866 248.764Z" fill="#F3F3F3"/>
</svg>
