<svg width="270" height="87" viewBox="0 0 270 87" xmlns="http://www.w3.org/2000/svg">
<g style="mix-blend-mode:multiply">
<path d="M107.079 19.1908V9.54409H96.0324C91.9248 9.54409 89.2382 12.8634 88.4084 14.523C87.4126 10.7888 82.9108 9.6478 80.7844 9.54409C60.0388 9.28476 17.3339 8.92169 12.4795 9.54409C7.625 10.1665 7.03375 19.865 7.34494 24.6365C6.59809 22.7694 5.27038 23.8585 4.69987 24.6365C2.2104 26.6281 0.654464 31.0676 0.187681 33.0385C0.291409 47.9234 0.436628 78.3469 0.187681 80.9608C-0.123504 84.2283 0.965641 85.1618 2.36597 85.3174C3.7663 85.473 3.45511 81.5832 4.07748 83.1391C4.57538 84.3839 8.74525 85.9398 10.7679 86.5621C32.3952 86.3547 77.2369 86.0642 83.585 86.5621C91.5202 87.1845 91.8314 80.494 92.9206 83.1391C93.7919 85.2552 97.2253 86.3028 98.8331 86.5621H172.273C180.519 86.5621 178.652 80.3385 180.208 83.1391C181.452 85.3796 185.602 86.3547 187.521 86.5621C207.799 86.5103 249.913 86.4377 256.137 86.5621C263.916 86.7177 264.85 84.8506 266.717 85.0062C268.211 85.1307 268.999 84.0208 269.206 83.4503C269.206 68.0986 269.829 29.1487 269.051 29.9267C266.717 32.2606 265.939 38.4842 264.694 42.2185C262.983 46.1083 260.493 50.413 259.871 49.6869C255.514 49.6869 246.334 45.0191 244.312 40.5069C242.498 36.4615 251.521 15.7678 250.691 16.7014C247.579 10.8511 242.756 9.28476 240.733 9.54409H175.696C172.957 9.54409 169.887 12.0336 168.694 13.2783C166.204 8.29935 152.042 8.2916 152.668 9.54409C154.535 13.2784 154.068 16.5457 154.068 18.2572C154.068 19.9688 153.29 30.8602 154.068 37.3951C154.691 42.623 151.631 44.656 150.49 45.0191C137.264 44.5523 111.903 44.5523 109.725 44.5523C107.546 44.5523 107.079 39.2622 108.169 37.3951C109.258 35.528 107.079 25.4145 107.079 19.1908Z"/>
</g>
<g style="mix-blend-mode:multiply">
<path d="M151.424 3.63166C151.797 4.50298 152.201 7.72892 152.357 9.23298C154.224 10.7889 154.069 15.3011 154.069 18.2573V27.2817C153.861 28.4227 153.571 32.0739 154.069 37.5507C154.567 43.0276 151.89 44.708 150.49 44.8636C138.665 44.708 114.331 44.4902 111.592 44.8636C108.169 45.3303 106.769 42.0629 107.547 39.2623C108.169 37.0217 108.429 35.4243 108.48 34.9057L106.769 17.3238C106.82 15.9234 106.893 11.878 106.769 6.8991C106.644 1.92015 109.932 0.675415 111.592 0.675415C122.068 0.882871 143.893 1.3289 147.378 1.45338C151.735 1.60897 150.957 2.54252 151.424 3.63166Z"/>
</g>
<g style="mix-blend-mode:multiply">
<path d="M269.985 24.7921C269.985 26.0368 269.466 28.7338 269.207 29.9266C268.741 30.3934 266.094 33.9721 266.25 36.6171C266.406 39.2622 262.205 47.5086 260.649 49.2201C259.093 50.9316 251.936 47.1974 249.913 45.7971C247.891 44.3967 243.69 41.9073 244.001 38.173C244.25 35.1857 248.046 23.9623 249.913 18.724C252.403 13.2472 254.166 12.8115 254.737 13.2783C258.471 14.5749 266.375 17.4793 268.118 18.724C270.296 20.2799 269.985 23.2362 269.985 24.7921Z"/>
</g>
</svg>
