<svg width="19" height="19" viewBox="0 0 19 19" fill="none" xmlns="http://www.w3.org/2000/svg">
<path d="M13.0375 1.5337C14.0536 1.53673 15.0272 1.94174 15.7458 2.66025C16.4643 3.37877 16.8693 4.35242 16.8723 5.36856V13.0375C16.8693 14.0536 16.4643 15.0272 15.7458 15.7458C15.0272 16.4643 14.0536 16.8693 13.0375 16.8723H5.36856C4.35242 16.8693 3.37877 16.4643 2.66025 15.7458C1.94174 15.0272 1.53673 14.0536 1.5337 13.0375V5.36856C1.53673 4.35242 1.94174 3.37877 2.66025 2.66025C3.37877 1.94174 4.35242 1.53673 5.36856 1.5337H13.0375ZM13.0375 0H5.36856C2.41579 0 0 2.41579 0 5.36856V13.0375C0 15.9902 2.41579 18.406 5.36856 18.406H13.0375C15.9902 18.406 18.406 15.9902 18.406 13.0375V5.36856C18.406 2.41579 15.9902 0 13.0375 0Z" fill="#292C35"/>
<path d="M14.1879 5.3685C13.9604 5.3685 13.738 5.30103 13.5488 5.17463C13.3596 5.04822 13.2122 4.86856 13.1251 4.65836C13.038 4.44815 13.0152 4.21685 13.0596 3.9937C13.104 3.77055 13.2136 3.56557 13.3745 3.40469C13.5353 3.2438 13.7403 3.13424 13.9635 3.08985C14.1866 3.04547 14.4179 3.06825 14.6281 3.15532C14.8383 3.24239 15.018 3.38983 15.1444 3.57901C15.2708 3.76819 15.3383 3.9906 15.3383 4.21813C15.3386 4.36929 15.3091 4.51902 15.2514 4.65874C15.1937 4.79846 15.1089 4.9254 15.0021 5.03229C14.8952 5.13918 14.7682 5.2239 14.6285 5.2816C14.4888 5.33929 14.3391 5.36883 14.1879 5.3685ZM9.20307 6.13515C9.80982 6.13515 10.403 6.31507 10.9075 6.65216C11.4119 6.98926 11.8052 7.46838 12.0374 8.02895C12.2695 8.58952 12.3303 9.20635 12.2119 9.80145C12.0936 10.3965 11.8014 10.9432 11.3723 11.3722C10.9433 11.8013 10.3967 12.0934 9.80157 12.2118C9.20647 12.3302 8.58964 12.2694 8.02907 12.0372C7.4685 11.805 6.98938 11.4118 6.65228 10.9073C6.31519 10.4028 6.13526 9.80971 6.13526 9.20295C6.13613 8.38959 6.45963 7.60978 7.03476 7.03465C7.6099 6.45951 8.3897 6.13602 9.20307 6.13515ZM9.20307 4.60145C8.29298 4.60145 7.40332 4.87132 6.64661 5.37694C5.8899 5.88256 5.30011 6.60122 4.95183 7.44203C4.60356 8.28285 4.51243 9.20806 4.68998 10.1007C4.86753 10.9933 5.30578 11.8132 5.94931 12.4567C6.59285 13.1002 7.41276 13.5385 8.30536 13.716C9.19796 13.8936 10.1232 13.8025 10.964 13.4542C11.8048 13.1059 12.5235 12.5161 13.0291 11.7594C13.5347 11.0027 13.8046 10.113 13.8046 9.20295C13.8046 7.98256 13.3198 6.81215 12.4568 5.9492C11.5939 5.08625 10.4235 4.60145 9.20307 4.60145Z" fill="#292C35"/>
</svg>
