<svg width="21" height="17" viewBox="0 0 21 17" fill="none" xmlns="http://www.w3.org/2000/svg">
<path d="M20.3684 2.0587C19.6348 2.38682 18.8586 2.603 18.0644 2.70039C18.8991 2.19726 19.5268 1.39795 19.8298 0.45237C19.0406 0.927387 18.1787 1.26068 17.2809 1.43798C16.9029 1.03012 16.4482 0.705652 15.9446 0.484306C15.4409 0.26296 14.8988 0.149356 14.3511 0.150398C12.1339 0.150398 10.3396 1.97062 10.3396 4.21445C10.3381 4.52656 10.3728 4.83773 10.4431 5.14134C8.85323 5.06461 7.29639 4.6471 5.87222 3.91552C4.44805 3.18394 3.1879 2.15439 2.1724 0.892747C1.81614 1.511 1.62773 2.21641 1.62686 2.93526C1.62686 4.34446 2.34108 5.5901 3.41953 6.31987C2.78058 6.30426 2.15472 6.13017 1.59508 5.81239V5.86272C1.59508 7.83393 2.98033 9.47381 4.81374 9.84708C4.46897 9.94169 4.11369 9.98963 3.75688 9.98968C3.5037 9.99013 3.25109 9.96484 3.00273 9.91418C3.51242 11.5289 4.99586 12.7032 6.75308 12.7368C5.32521 13.8696 3.57216 14.4818 1.76946 14.4773C1.44948 14.4768 1.12979 14.4572 0.812012 14.4186C2.6459 15.6241 4.77766 16.2617 6.95353 16.2556C14.3426 16.2556 18.3794 10.061 18.3794 4.68838C18.3794 4.51223 18.3749 4.33608 18.3667 4.16412C19.1502 3.5904 19.8281 2.87743 20.3684 2.0587Z" fill="#292C35"/>
</svg>
