<svg width="875" height="256" fill="none" xmlns="http://www.w3.org/2000/svg"><path d="M0 244.919V4.872C0 2.214 2.313 0 5.088 0h88.354c13.414 0 25.904 2.214 37.469 6.2 11.564 3.987 21.278 10.187 29.142 17.716 8.327 7.53 14.34 16.387 18.966 27.016 4.626 10.63 6.939 22.145 6.939 34.546 0 12.844-2.313 24.359-6.939 34.988-4.626 10.63-11.102 19.488-19.428 27.017-8.327 7.529-18.504 13.286-30.068 17.272-11.565 3.986-24.517 6.201-38.394 6.201h-21.28c-2.775 0-5.088 2.214-5.088 4.872v68.648c0 2.657-2.312 4.872-5.088 4.872H5.088C2.313 249.79 0 247.576 0 244.919zM65.224 56.247v59.348c0 2.657 2.313 4.871 5.088 4.871h8.327c13.877 0 24.517-3.1 31.918-8.857 7.401-6.201 11.102-14.616 11.102-26.131 0-23.03-13.877-34.545-42.095-34.545h-8.789c-3.238.442-5.551 2.657-5.551 5.314zm138.775 14.616h49.496c2.776 0 5.089 2.215 5.089 4.872v104.08c0 18.158 7.864 27.459 24.054 27.459 8.327 0 14.803-2.658 19.429-7.972 4.625-5.315 6.938-12.401 6.938-21.259V76.178c0-2.657 2.313-4.872 5.089-4.872h49.496c2.775 0 5.088 2.215 5.088 4.872V244.92c0 2.657-2.313 4.871-5.088 4.871h-48.571c-2.776 0-5.089-2.214-5.089-4.871v-9.301h-1.387c-4.164 6.2-10.64 11.072-19.891 14.615-8.789 3.543-18.504 5.315-29.143 5.315-18.503 0-33.306-5.315-44.408-15.944-11.102-10.63-16.653-24.802-16.653-42.518V75.735c0-2.657 2.313-4.872 5.551-4.872z" fill="#F3F3F3"/><path fill-rule="evenodd" clip-rule="evenodd" d="M711.866 248.764h49.497c2.775 0 5.088-2.214 5.551-5.314V141.585c0-8.858 2.312-15.944 6.938-21.259 4.626-5.315 10.64-7.972 18.504-7.972 14.802 0 22.203 8.858 22.203 25.687v104.966c0 2.657 2.313 4.871 5.089 4.871h49.959c2.775 0 5.088-2.214 5.088-4.871V121.655c0-8.415-1.85-16.387-4.626-23.474-3.238-7.086-6.939-13.286-12.49-18.158-5.55-4.872-12.027-8.858-19.428-11.515-7.401-2.658-15.728-3.986-24.517-3.986-4.626 0-9.251.442-14.802 1.328-5.089.886-10.64 2.215-15.728 4.43-5.089 2.214-10.177 4.428-14.34 7.528-4.163 2.658-7.401 6.2-9.714 10.63h-1.851c-10.639-15.944-27.755-23.916-49.959-23.916-10.639 0-19.891 1.771-28.217 5.314s-13.943 6.572-19.264 12.515l-2.015 2.1-6.409 7.566c-2.414-4.132-5.226-7.828-8.808-10.972-5.55-4.872-12.027-8.858-19.428-11.515-7.401-2.657-15.728-3.986-24.517-3.986-4.626 0-9.251.443-14.802 1.329-5.089.885-10.64 2.214-15.728 4.428-5.089 2.215-10.177 4.43-14.34 7.53-4.163 2.657-7.401 6.2-9.714 10.63h-1.851c-10.639-15.945-27.755-23.917-49.959-23.917-10.639 0-19.891 1.772-28.217 5.315s-14.803 8.415-18.966 14.615h-2.313V75.73c0-2.657-2.313-4.871-5.088-4.871h-48.109c-2.775 0-5.088 2.214-5.088 4.871v169.185c0 2.657 2.313 4.872 5.088 4.872h49.959c2.776 0 5.089-2.215 5.089-4.872V143.05c0-8.858 1.85-15.944 6.476-21.259 4.626-5.315 10.639-7.972 18.503-7.972 14.803 0 22.204 8.415 22.204 25.688v105.408c0 2.657 2.313 4.872 5.088 4.872h49.497c2.775 0 5.088-2.215 5.551-5.315V142.607c0-8.858 2.312-15.944 6.938-21.259 4.626-5.314 10.64-7.972 18.503-7.972 14.111 0 21.496 8.049 22.156 23.38v107.136c0 .56.102 1.1.29 1.603.662 1.959 2.603 3.406 4.847 3.406h49.959c2.775 0 5.088-2.215 5.088-4.872V139.608c.319-7.738 2.231-14.018 6.428-18.839 4.626-5.315 10.639-7.972 18.503-7.972 14.803 0 22.204 8.415 22.204 25.687v105.408c0 2.658 2.313 4.872 5.088 4.872z" fill="#F3F3F3"/></svg>