<svg width="270" height="87" xmlns="http://www.w3.org/2000/svg"><path d="M107.079 19.19V9.545H96.032c-4.107 0-6.794 3.32-7.624 4.979-.995-3.734-5.497-4.875-7.624-4.979-20.745-.26-63.45-.622-68.305 0-4.854.622-5.445 10.321-5.134 15.093-.747-1.868-2.075-.779-2.645 0-2.49 1.991-4.046 6.43-4.512 8.401.103 14.885.249 45.309 0 47.923-.312 3.267.778 4.2 2.178 4.356 1.4.156 1.09-3.734 1.711-2.178.498 1.245 4.668 2.8 6.69 3.423 21.628-.207 66.47-.498 72.818 0 7.935.623 8.246-6.068 9.336-3.423.87 2.116 4.304 3.164 5.912 3.423h73.44c8.246 0 6.379-6.224 7.935-3.423 1.244 2.24 5.394 3.216 7.313 3.423 20.278-.052 62.392-.124 68.616 0 7.779.156 8.713-1.711 10.58-1.556 1.494.125 2.282-.985 2.489-1.556 0-15.351.623-54.301-.155-53.523-2.334 2.334-3.112 8.557-4.357 12.291-1.711 3.89-4.201 8.195-4.823 7.469-4.357 0-13.537-4.668-15.559-9.18-1.814-4.045 7.209-24.74 6.379-23.806-3.112-5.85-7.935-7.416-9.958-7.157h-65.037c-2.739 0-5.809 2.49-7.002 3.734-2.49-4.979-16.652-4.986-16.026-3.734 1.867 3.734 1.4 7.002 1.4 8.713 0 1.712-.778 12.603 0 19.138.623 5.228-2.437 7.261-3.578 7.624-13.226-.467-38.587-.467-40.765-.467-2.179 0-2.646-5.29-1.556-7.157 1.089-1.867-1.09-11.98-1.09-18.204z"/><path d="M151.424 3.632c.373.871.777 4.097.933 5.601 1.867 1.556 1.712 6.068 1.712 9.024v9.025c-.208 1.14-.498 4.792 0 10.269s-2.179 7.157-3.579 7.313c-11.825-.156-36.159-.374-38.898 0-3.423.466-4.823-2.801-4.045-5.602.622-2.24.882-3.838.933-4.356l-1.711-17.582c.051-1.4.124-5.446 0-10.425-.125-4.979 3.163-6.224 4.823-6.224 10.476.208 32.301.654 35.786.778 4.357.156 3.579 1.09 4.046 2.179zm118.561 21.16c0 1.245-.519 3.942-.778 5.135-.466.466-3.113 4.045-2.957 6.69.156 2.645-4.045 10.892-5.601 12.603-1.556 1.712-8.713-2.023-10.736-3.423-2.022-1.4-6.223-3.89-5.912-7.624.249-2.987 4.045-14.21 5.912-19.449 2.49-5.477 4.253-5.912 4.824-5.446 3.734 1.297 11.638 4.201 13.381 5.446 2.178 1.556 1.867 4.512 1.867 6.068z"/></svg>