<svg width="97" height="29" fill="none" xmlns="http://www.w3.org/2000/svg"><path d="M0 26.933V.537C0 .244.254 0 .56 0h9.716c1.475 0 2.848.244 4.12.682a8.708 8.708 0 013.205 1.948c.916.828 1.577 1.802 2.086 2.971.508 1.169.763 2.435.763 3.799 0 1.412-.255 2.679-.763 3.848a8.53 8.53 0 01-2.137 2.97c-.916.829-2.035 1.462-3.307 1.9a12.957 12.957 0 01-4.222.682h-2.34a.553.553 0 00-.56.536v7.549a.553.553 0 01-.559.536H.56a.487.487 0 01-.56-.488zM7.173 6.185v6.527c0 .292.254.536.56.536h.915c1.526 0 2.696-.341 3.51-.974.814-.682 1.22-1.608 1.22-2.874 0-2.533-1.525-3.799-4.628-3.799h-.967c-.356.049-.61.292-.61.584zm15.261 1.609h5.443c.305 0 .56.243.56.536v11.445c0 1.997.864 3.02 2.645 3.02.915 0 1.627-.292 2.136-.877.509-.584.763-1.363.763-2.338V8.378c0-.292.255-.535.56-.535h5.443c.305 0 .56.243.56.535v18.557a.553.553 0 01-.56.536h-5.342a.553.553 0 01-.56-.536v-1.023h-.152c-.458.682-1.17 1.218-2.187 1.607-.967.39-2.035.585-3.205.585-2.035 0-3.663-.585-4.883-1.754-1.221-1.169-1.832-2.727-1.832-4.675V8.33c0-.293.255-.536.61-.536z" fill="#22425A"/><path fill-rule="evenodd" clip-rule="evenodd" d="M78.271 27.356h5.443c.305 0 .56-.243.61-.584V15.57c0-.974.255-1.754.764-2.338.508-.584 1.17-.877 2.035-.877 1.627 0 2.441.974 2.441 2.825v11.543c0 .292.255.536.56.536h5.494c.305 0 .56-.244.56-.536V13.378c0-.925-.204-1.802-.51-2.581-.356-.78-.762-1.461-1.373-1.997a6.62 6.62 0 00-2.136-1.266c-.814-.293-1.73-.439-2.697-.439-.508 0-1.017.049-1.627.146-.56.098-1.17.244-1.73.487-.56.244-1.119.487-1.577.828a3.02 3.02 0 00-1.068 1.17h-.204c-1.17-1.754-3.052-2.63-5.493-2.63-1.17 0-2.188.194-3.104.584-.915.39-1.533.722-2.118 1.376l-.222.23-.701.83a4.776 4.776 0 00-.968-1.206 6.62 6.62 0 00-2.137-1.266c-.813-.293-1.73-.439-2.696-.439-.508 0-1.017.049-1.627.146-.56.098-1.17.244-1.73.487-.56.244-1.12.488-1.577.828a3.02 3.02 0 00-1.068 1.17h-.204c-1.17-1.754-3.052-2.63-5.494-2.63-1.17 0-2.187.194-3.103.584-.915.39-1.628.925-2.085 1.607h-.255V8.326a.553.553 0 00-.56-.536h-5.29a.553.553 0 00-.56.536V26.93c0 .292.255.535.56.535h5.494c.305 0 .56-.243.56-.535V15.729c0-.974.203-1.754.712-2.338.509-.585 1.17-.877 2.035-.877 1.628 0 2.441.926 2.441 2.825V26.93c0 .292.255.535.56.535h5.443c.305 0 .56-.243.61-.584V15.68c0-.974.255-1.753.764-2.338.508-.584 1.17-.877 2.034-.877 1.528 0 2.339.858 2.433 2.493V26.82a.57.57 0 00.569.548h5.494c.305 0 .56-.243.56-.535V15.27c.044-.813.255-1.476.702-1.99.509-.584 1.17-.876 2.035-.876 1.628 0 2.442.925 2.442 2.825V26.82c0 .293.254.536.56.536z" fill="#22425A"/></svg>