<svg width="19" height="19" fill="none" xmlns="http://www.w3.org/2000/svg"><path d="M13.037 1.534a3.847 3.847 0 013.835 3.835v7.668a3.846 3.846 0 01-3.835 3.835H5.37a3.846 3.846 0 01-3.835-3.835V5.37A3.846 3.846 0 015.37 1.535h7.668zm0-1.534H5.37C2.416 0 0 2.416 0 5.369v7.668c0 2.953 2.416 5.369 5.369 5.369h7.668c2.953 0 5.369-2.416 5.369-5.368v-7.67C18.406 2.417 15.99 0 13.038 0z" fill="#292C35"/><path d="M14.188 5.369a1.15 1.15 0 110-2.301 1.15 1.15 0 010 2.3zm-4.985.766a3.068 3.068 0 110 6.136 3.068 3.068 0 010-6.136zm0-1.534a4.601 4.601 0 100 9.203 4.601 4.601 0 000-9.203z" fill="#292C35"/></svg>