<svg width="21" height="17" fill="none" xmlns="http://www.w3.org/2000/svg"><path d="M20.368 2.059a8.038 8.038 0 01-2.304.641A4.068 4.068 0 0019.83.452a7.916 7.916 0 01-2.55.986 4.039 4.039 0 00-1.335-.954A3.94 3.94 0 0014.35.15c-2.217 0-4.011 1.82-4.011 4.064-.002.313.033.624.103.927a11.18 11.18 0 01-4.57-1.225 11.498 11.498 0 01-3.7-3.023 4.103 4.103 0 00-.546 2.042c0 1.41.714 2.655 1.793 3.385a3.885 3.885 0 01-1.825-.508v.05c0 1.972 1.385 3.612 3.219 3.985-.345.095-.7.143-1.057.143a3.74 3.74 0 01-.754-.076c.51 1.615 1.993 2.79 3.75 2.823a7.982 7.982 0 01-5.941 1.682 11.118 11.118 0 006.142 1.837c7.389 0 11.425-6.195 11.425-11.568 0-.176-.004-.352-.012-.524a8.217 8.217 0 002.001-2.105z" fill="#292C35"/></svg>